<?xml version="1.0" encoding="UTF-8" standalone="no"?>
<!DOCTYPE svg PUBLIC "-//W3C//DTD SVG 1.1//EN"
 "http://www.w3.org/Graphics/SVG/1.1/DTD/svg11.dtd">
<!-- Generated by graphviz version 2.38.0 (20140413.2041)
 -->
<!-- Title: Tree Pages: 1 -->
<svg width="515pt" height="269pt"
 viewBox="0.00 0.00 514.50 269.00" xmlns="http://www.w3.org/2000/svg" xmlns:xlink="http://www.w3.org/1999/xlink">
<g id="graph0" class="graph" transform="scale(1 1) rotate(0) translate(4 265)">
<title>Tree</title>
<polygon fill="white" stroke="none" points="-4,4 -4,-265 510.5,-265 510.5,4 -4,4"/>
<!-- 0 -->
<g id="node1" class="node"><title>0</title>
<polygon fill="none" stroke="black" points="310,-261 184,-261 184,-193 310,-193 310,-261"/>
<text text-anchor="middle" x="247" y="-245.8" font-family="Times,serif" font-size="14.00">X[0] &lt;= 5.45</text>
<text text-anchor="middle" x="247" y="-230.8" font-family="Times,serif" font-size="14.00">entropy = 1.581</text>
<text text-anchor="middle" x="247" y="-215.8" font-family="Times,serif" font-size="14.00">samples = 120</text>
<text text-anchor="middle" x="247" y="-200.8" font-family="Times,serif" font-size="14.00">value = [39, 37, 44]</text>
</g>
<!-- 1 -->
<g id="node2" class="node"><title>1</title>
<polygon fill="none" stroke="black" points="236.5,-157 123.5,-157 123.5,-89 236.5,-89 236.5,-157"/>
<text text-anchor="middle" x="180" y="-141.8" font-family="Times,serif" font-size="14.00">X[1] &lt;= 2.85</text>
<text text-anchor="middle" x="180" y="-126.8" font-family="Times,serif" font-size="14.00">entropy = 0.696</text>
<text text-anchor="middle" x="180" y="-111.8" font-family="Times,serif" font-size="14.00">samples = 41</text>
<text text-anchor="middle" x="180" y="-96.8" font-family="Times,serif" font-size="14.00">value = [35, 5, 1]</text>
</g>
<!-- 0&#45;&gt;1 -->
<g id="edge1" class="edge"><title>0&#45;&gt;1</title>
<path fill="none" stroke="black" d="M225.247,-192.884C219.572,-184.243 213.381,-174.819 207.452,-165.793"/>
<polygon fill="black" stroke="black" points="210.289,-163.736 201.873,-157.299 204.438,-167.579 210.289,-163.736"/>
<text text-anchor="middle" x="196.803" y="-178.08" font-family="Times,serif" font-size="14.00">True</text>
</g>
<!-- 4 -->
<g id="node5" class="node"><title>4</title>
<polygon fill="none" stroke="black" points="373.5,-157 254.5,-157 254.5,-89 373.5,-89 373.5,-157"/>
<text text-anchor="middle" x="314" y="-141.8" font-family="Times,serif" font-size="14.00">X[0] &lt;= 5.95</text>
<text text-anchor="middle" x="314" y="-126.8" font-family="Times,serif" font-size="14.00">entropy = 1.224</text>
<text text-anchor="middle" x="314" y="-111.8" font-family="Times,serif" font-size="14.00">samples = 79</text>
<text text-anchor="middle" x="314" y="-96.8" font-family="Times,serif" font-size="14.00">value = [4, 32, 43]</text>
</g>
<!-- 0&#45;&gt;4 -->
<g id="edge4" class="edge"><title>0&#45;&gt;4</title>
<path fill="none" stroke="black" d="M268.753,-192.884C274.428,-184.243 280.619,-174.819 286.548,-165.793"/>
<polygon fill="black" stroke="black" points="289.562,-167.579 292.127,-157.299 283.711,-163.736 289.562,-167.579"/>
<text text-anchor="middle" x="297.197" y="-178.08" font-family="Times,serif" font-size="14.00">False</text>
</g>
<!-- 2 -->
<g id="node3" class="node"><title>2</title>
<polygon fill="none" stroke="black" points="106,-53 7.10543e-15,-53 7.10543e-15,-0 106,-0 106,-53"/>
<text text-anchor="middle" x="53" y="-37.8" font-family="Times,serif" font-size="14.00">entropy = 1.252</text>
<text text-anchor="middle" x="53" y="-22.8" font-family="Times,serif" font-size="14.00">samples = 6</text>
<text text-anchor="middle" x="53" y="-7.8" font-family="Times,serif" font-size="14.00">value = [1, 4, 1]</text>
</g>
<!-- 1&#45;&gt;2 -->
<g id="edge2" class="edge"><title>1&#45;&gt;2</title>
<path fill="none" stroke="black" d="M135.582,-88.9485C122.673,-79.3431 108.604,-68.8747 95.797,-59.345"/>
<polygon fill="black" stroke="black" points="97.7,-56.3984 87.588,-53.2367 93.5213,-62.0143 97.7,-56.3984"/>
</g>
<!-- 3 -->
<g id="node4" class="node"><title>3</title>
<polygon fill="none" stroke="black" points="237.5,-53 124.5,-53 124.5,-0 237.5,-0 237.5,-53"/>
<text text-anchor="middle" x="181" y="-37.8" font-family="Times,serif" font-size="14.00">entropy = 0.187</text>
<text text-anchor="middle" x="181" y="-22.8" font-family="Times,serif" font-size="14.00">samples = 35</text>
<text text-anchor="middle" x="181" y="-7.8" font-family="Times,serif" font-size="14.00">value = [34, 1, 0]</text>
</g>
<!-- 1&#45;&gt;3 -->
<g id="edge3" class="edge"><title>1&#45;&gt;3</title>
<path fill="none" stroke="black" d="M180.35,-88.9485C180.437,-80.7153 180.531,-71.848 180.619,-63.4814"/>
<polygon fill="black" stroke="black" points="184.122,-63.2732 180.728,-53.2367 177.122,-63.1991 184.122,-63.2732"/>
</g>
<!-- 5 -->
<g id="node6" class="node"><title>5</title>
<polygon fill="none" stroke="black" points="369.5,-53 256.5,-53 256.5,-0 369.5,-0 369.5,-53"/>
<text text-anchor="middle" x="313" y="-37.8" font-family="Times,serif" font-size="14.00">entropy = 1.198</text>
<text text-anchor="middle" x="313" y="-22.8" font-family="Times,serif" font-size="14.00">samples = 26</text>
<text text-anchor="middle" x="313" y="-7.8" font-family="Times,serif" font-size="14.00">value = [4, 18, 4]</text>
</g>
<!-- 4&#45;&gt;5 -->
<g id="edge5" class="edge"><title>4&#45;&gt;5</title>
<path fill="none" stroke="black" d="M313.65,-88.9485C313.563,-80.7153 313.469,-71.848 313.381,-63.4814"/>
<polygon fill="black" stroke="black" points="316.878,-63.1991 313.272,-53.2367 309.878,-63.2732 316.878,-63.1991"/>
</g>
<!-- 6 -->
<g id="node7" class="node"><title>6</title>
<polygon fill="none" stroke="black" points="506.5,-53 387.5,-53 387.5,-0 506.5,-0 506.5,-53"/>
<text text-anchor="middle" x="447" y="-37.8" font-family="Times,serif" font-size="14.00">entropy = 0.833</text>
<text text-anchor="middle" x="447" y="-22.8" font-family="Times,serif" font-size="14.00">samples = 53</text>
<text text-anchor="middle" x="447" y="-7.8" font-family="Times,serif" font-size="14.00">value = [0, 14, 39]</text>
</g>
<!-- 4&#45;&gt;6 -->
<g id="edge6" class="edge"><title>4&#45;&gt;6</title>
<path fill="none" stroke="black" d="M360.517,-88.9485C374.164,-79.2516 389.05,-68.6752 402.564,-59.073"/>
<polygon fill="black" stroke="black" points="404.653,-61.882 410.778,-53.2367 400.599,-56.1757 404.653,-61.882"/>
</g>
</g>
</svg>
